<svg width="18" height="18" viewBox="0 0 18 18" fill="none" xmlns="http://www.w3.org/2000/svg">
<path d="M14.7878 4.66146L7.03025 12.2425C6.96299 12.2937 6.90089 12.3343 6.83251 12.362C6.76412 12.3897 6.6908 12.404 6.61675 12.404C6.5427 12.404 6.46938 12.3897 6.401 12.362C6.33262 12.3343 6.27051 12.2937 6.21826 12.2425L3.21252 9.30785C3.16026 9.25668 3.09816 9.21607 3.02977 9.18836C2.96139 9.16066 2.88807 9.14639 2.81402 9.14639C2.73997 9.14639 2.66665 9.16066 2.59827 9.18836C2.52988 9.21607 2.46778 9.25668 2.43052 9.30785C2.36306 9.35882 2.32143 9.4194 2.29303 9.48611C2.26462 9.55281 2.25 9.62433 2.25 9.69656C2.25 9.76879 2.26462 9.84031 2.29303 9.90701C2.32143 9.97372 2.36306 10.0343 2.43052 10.0853L5.42239 13.0177C5.73958 13.3266 6.16943 13.5 6.6176 13.5C7.06576 13.5 7.49561 13.3266 7.81281 13.0177L30.5848 5.43833C30.6371 5.38736 30.6787 5.32682 30.707 5.26017C30.7354 5.19351 30.75 5.12206 30.75 5.04989C30.75 4.97773 30.7354 4.90627 30.707 4.83962C30.6787 4.77296 30.6371 4.71242 30.5848 4.66146C30.5325 4.61028 30.4704 4.56968 30.402 4.54197C30.3336 4.51426 30.2603 4.5 30.1863 4.5C30.1122 4.5 30.0389 4.51426 14.9705 4.54197C14.9021 4.56968 14.84 4.61028 14.7878 4.66146Z" fill="#FF7D22"/>
</svg>
